<svg xmlns="http://www.w3.org/2000/svg" width="36" height="36" viewBox="0 0 32 32"><g fill="none" fill-rule="evenodd"><path fill="#1565AE" fill-rule="nonzero" stroke="#FEFEFE" stroke-linecap="round" stroke-linejoin="round" stroke-width=".2" d="M12.47 17.565H9.714v-2.942H6.129c-.452 0-.772-.016-.95-.05a1.302 1.302 0 0 1-.529-.226c-.433-.292-.65-.74-.65-1.343 0-.342.053-.63.16-.856.11-.222.406-.683.89-1.37L9.815 4h2.65v7.922h1.114v2.705h-1.114v2.942l.004-.004zm-2.756-5.643v-3.35l-2.217 3.35h2.217z"/><g stroke-width=".2"><path fill="#FCD964" stroke="#FCD964" d="M19.476 6.854c-.923-.882-1.688-1.623-2.608-2.501-1.421-.91-1.82.89-1.387 1.266l1.737 1.953c-.585.583-1.098 1.185-1.684 1.768-.623 1.04.863 1.964 1.544 1.2l2.452-2.504c.167-.345.216-.787-.05-1.182h-.004z"/><path fill="#1565AE" stroke="#1565AE" d="M23.422 6.854c-.923-.882-1.687-1.623-2.607-2.501-1.422-.91-1.821.89-1.388 1.266l1.737 1.953c-.585.583-1.098 1.185-1.684 1.768-.623 1.04.863 1.964 1.544 1.2l2.452-2.504c.167-.345.216-.787-.05-1.182h-.004z"/><path fill="#ED3237" stroke="#ED3237" d="M27.365 6.854c-.924-.882-1.688-1.623-2.608-2.501-1.422-.91-1.821.89-1.388 1.266l1.738 1.953c-.586.583-1.1 1.185-1.685 1.768-.623 1.04.863 1.964 1.544 1.2.817-.835 1.635-1.668 2.452-2.504.167-.345.217-.787-.05-1.182h-.003z"/></g><g fill="#1565AE" fill-rule="nonzero" stroke="#FEFEFE" stroke-linecap="round" stroke-linejoin="round" stroke-width=".2"><path d="M27.616 25.391h-5.76c-.551 0-.939-.023-1.167-.073a1.385 1.385 0 0 1-.627-.33 1.862 1.862 0 0 1-.68-1.473c0-.318.06-.583.174-.786.118-.207.41-.568.886-1.074l3.62-3.948c.414-.445.695-.79.832-1.036.14-.245.209-.506.209-.782 0-.4-.164-.744-.487-1.032a1.419 1.419 0 0 0-.962-.372c-.543 0-.958.234-1.235.706-.114.188-.179.448-.205.782h-2.692c.011-.844.217-1.588.612-2.236a3.992 3.992 0 0 1 1.616-1.508 3.964 3.964 0 0 1 1.897-.472c1.22 0 2.243.453 3.075 1.354.726.787 1.088 1.734 1.088 2.84 0 .617-.103 1.15-.312 1.607-.205.46-.586.982-1.13 1.572l-3.387 3.641h4.63v2.62h.005z"/><path d="M15.241 25.334h-3.003l5.262-10.75h-5.691v-2.65h5.69c.673 0 1.156.026 1.441.084.285.054.548.173.787.349.475.345.711.844.711 1.492 0 .227-.023.41-.072.568-.05.154-.186.472-.414.955l-4.71 9.956v-.004z"/></g><path fill="#1565AE" fill-rule="nonzero" d="M4.038 27.977v-1.116h.224v.928h.56v.188h-.788.004zm1.954 0h-.247l-.099-.257h-.445l-.09.257h-.24l.433-1.128h.24l.448 1.128zm-.414-.445l-.152-.418-.152.418h.304zm.908.445v-1.128h.475a.87.87 0 0 1 .259.03c.053.02.099.058.13.108a.328.328 0 0 1 .049.177.31.31 0 0 1-.073.21.363.363 0 0 1-.22.104c.05.031.087.062.122.096.03.035.076.096.129.184l.137.219h-.27l-.164-.246a1.813 1.813 0 0 0-.118-.165.18.18 0 0 0-.068-.046.397.397 0 0 0-.114-.011h-.046v.472H6.49l-.004-.004zm.225-.648h.167a.714.714 0 0 0 .201-.016.134.134 0 0 0 .065-.046.147.147 0 0 0 .023-.084.14.14 0 0 0-.03-.092.15.15 0 0 0-.084-.046c-.02-.004-.073-.004-.164-.004h-.175v.284l-.003.004zm.9.648v-1.128h.83v.192H7.84v.25h.558v.187H7.84v.307h.623v.188h-.848l-.003.004zm1.038-1.128h.411c.091 0 .163.008.213.023.064.02.121.054.167.104.046.05.084.111.107.184a.885.885 0 0 1 .003.502.513.513 0 0 1-.117.2.356.356 0 0 1-.16.088.71.71 0 0 1-.202.023h-.425v-1.128l.003.004zm.225.192v.744h.167c.065 0 .11-.004.137-.011a.173.173 0 0 0 .091-.046.305.305 0 0 0 .06-.108.74.74 0 0 0 .024-.207.664.664 0 0 0-.023-.2.22.22 0 0 0-.167-.161.934.934 0 0 0-.187-.011h-.102zm1.334.936v-1.128h.361c.137 0 .228.008.266.015a.274.274 0 0 1 .16.112.36.36 0 0 1 .065.218.34.34 0 0 1-.133.284.297.297 0 0 1-.118.054 1.238 1.238 0 0 1-.236.015h-.148v.426H10.2l.008.004zm.224-.936v.318h.122a.585.585 0 0 0 .179-.019.171.171 0 0 0 .072-.054.172.172 0 0 0 .027-.088.144.144 0 0 0-.126-.15 1.28 1.28 0 0 0-.163-.007h-.11zm.768.38a.71.71 0 0 1 .05-.288.6.6 0 0 1 .102-.153.393.393 0 0 1 .145-.1.58.58 0 0 1 .24-.046c.163 0 .296.05.395.153.098.104.148.246.148.43 0 .18-.05.326-.148.426a.513.513 0 0 1-.392.153.516.516 0 0 1-.395-.153.582.582 0 0 1-.149-.422h.004zm.232-.008c0 .127.03.223.088.292.057.065.133.1.224.1s.163-.031.22-.1c.057-.066.088-.165.088-.296 0-.13-.027-.226-.084-.288a.279.279 0 0 0-.224-.095.284.284 0 0 0-.224.095c-.057.066-.084.162-.084.292h-.004zm.97.196l.22-.023a.26.26 0 0 0 .08.165.247.247 0 0 0 .163.053c.073 0 .13-.015.164-.046a.139.139 0 0 0 .057-.107.108.108 0 0 0-.023-.07.192.192 0 0 0-.08-.049c-.026-.008-.087-.027-.178-.05a.642.642 0 0 1-.255-.111.294.294 0 0 1-.053-.388c.03-.05.08-.088.14-.115a.541.541 0 0 1 .22-.038c.141 0 .248.03.316.092a.326.326 0 0 1 .11.25l-.224.01a.22.22 0 0 0-.06-.126c-.031-.027-.08-.038-.145-.038-.065 0-.118.011-.152.042a.087.087 0 0 0-.034.07c0 .026.011.049.034.068.027.023.099.05.205.077.11.027.19.054.243.08a.274.274 0 0 1 .122.116c.03.05.046.107.046.18a.333.333 0 0 1-.206.307.63.63 0 0 1-.243.042.49.49 0 0 1-.327-.1.43.43 0 0 1-.137-.287l-.003-.004zm1.35.368v-.936h-.332v-.192h.886v.192h-.33v.936h-.225zm1.592 0h-.247l-.099-.257h-.445l-.091.257h-.24l.434-1.128h.24l.448 1.128zm-.414-.445l-.152-.418-.152.418h.304zm.54.445v-1.116h.224v.928h.559v.188h-.787.003zm1.35-1.128h.41c.09 0 .163.008.213.023.064.02.121.054.167.104.045.05.083.111.106.184a.885.885 0 0 1 .004.502.513.513 0 0 1-.118.2.356.356 0 0 1-.16.088.71.71 0 0 1-.201.023h-.426v-1.128l.004.004zm.223.192v.744h.168c.064 0 .11-.004.136-.011a.173.173 0 0 0 .092-.046.305.305 0 0 0 .06-.108.74.74 0 0 0 .023-.207.664.664 0 0 0-.022-.2.22.22 0 0 0-.167-.161.934.934 0 0 0-.187-.011h-.103zm.901.936v-1.128h.83v.192h-.602v.25h.56v.187h-.56v.307h.624v.188h-.848l-.004.004zm2.186-.414l.217.069a.478.478 0 0 1-.167.272.456.456 0 0 1-.297.088.472.472 0 0 1-.365-.153.593.593 0 0 1-.144-.418c0-.188.05-.334.144-.438a.49.49 0 0 1 .38-.157c.137 0 .247.042.335.123a.49.49 0 0 1 .114.207l-.224.054a.236.236 0 0 0-.084-.138.227.227 0 0 0-.152-.05.26.26 0 0 0-.202.088c-.053.061-.076.157-.076.292 0 .141.027.245.076.303.05.061.118.092.198.092.061 0 .11-.02.156-.058a.35.35 0 0 0 .091-.18v.004zm.365-.142a.71.71 0 0 1 .05-.288.6.6 0 0 1 .102-.153.393.393 0 0 1 .145-.1.58.58 0 0 1 .24-.046c.163 0 .296.05.395.153.098.104.148.246.148.43 0 .18-.05.326-.148.426a.513.513 0 0 1-.392.153.516.516 0 0 1-.395-.153.582.582 0 0 1-.149-.422h.004zm.232-.008c0 .127.03.223.088.292.057.065.133.1.224.1s.163-.031.22-.1c.057-.066.088-.165.088-.296 0-.13-.027-.226-.084-.288a.279.279 0 0 0-.224-.095.284.284 0 0 0-.224.095c-.057.066-.084.162-.084.292h-.004zm1.034.564v-1.116h.224v.928h.56v.188h-.788.004zm.901-.556a.71.71 0 0 1 .05-.288.6.6 0 0 1 .102-.153.393.393 0 0 1 .145-.1.58.58 0 0 1 .24-.046c.163 0 .296.05.395.153.098.104.148.246.148.43 0 .18-.05.326-.148.426a.513.513 0 0 1-.392.153.516.516 0 0 1-.395-.153.582.582 0 0 1-.149-.422h.004zm.232-.008c0 .127.03.223.087.292.057.065.134.1.225.1s.163-.031.22-.1c.057-.066.088-.165.088-.296 0-.13-.027-.226-.084-.288a.279.279 0 0 0-.224-.095.284.284 0 0 0-.225.095c-.057.066-.083.162-.083.292h-.004zm1.023.564v-1.128h.338l.201.767.202-.767h.338v1.128h-.209v-.886l-.22.886h-.217l-.22-.886v.886h-.213zm1.304-1.128h.444c.088 0 .156.004.198.012a.316.316 0 0 1 .118.046c.034.023.06.053.084.096a.257.257 0 0 1 .034.13c0 .054-.015.1-.042.146a.289.289 0 0 1-.114.1.27.27 0 0 1 .156.103c.038.05.053.104.053.169 0 .05-.011.1-.034.15a.286.286 0 0 1-.247.168c-.038.004-.13.008-.274.008h-.38v-1.128h.004zm.224.188v.261h.148c.088 0 .14 0 .164-.004a.166.166 0 0 0 .09-.038.116.116 0 0 0 .035-.088.125.125 0 0 0-.027-.085c-.019-.023-.049-.034-.083-.038-.023-.004-.088-.004-.194-.004h-.13l-.003-.004zm0 .449v.3h.209c.08 0 .133-.005.156-.009a.164.164 0 0 0 .084-.046c.022-.023.03-.057.03-.095a.147.147 0 0 0-.023-.085.114.114 0 0 0-.072-.05.75.75 0 0 0-.202-.015h-.182zm.893.491v-1.128h.225v1.128h-.225zm1.449 0h-.247l-.1-.257h-.444l-.091.257h-.24l.434-1.128h.24l.448 1.128zm-.415-.445l-.152-.418-.152.418h.304z"/></g></svg>