<svg xmlns="http://www.w3.org/2000/svg" width="36" height="36" viewBox="0 0 32 32"><path fill="#020203" fill-rule="evenodd" d="M22.682 2.943C27.718 4.75 30.638 9.916 29.505 16c-1.318 7.091-7.673 12.93-14.576 13.674-.549-.018-.557-.336-.575-.808.026-.98.062-1.97.088-2.95.01-.146-.044-.191-.106-.21a10.554 10.554 0 0 1-2.097-.454c-.744-.3-1.496-.735-2.248-1.235-.346-.172-.301-.99-.292-1.307.062-.581.477-1.934 1.15-1.998.805-.045 1.186.39 1.983.79 1.398.681 3.354 1.08 4.805.382.7-.436.868-1.026.54-1.77-.566-1.218-3.283-2.216-4.514-2.825-2.946-1.29-4.593-3.904-4.07-7.018.389-2.298 2.486-4.04 4.681-4.359V4.814c-2.708.808-4.77 2.406-6.62 4.267-2.681 2.688-4.257 6.084-4.39 10.424.213 5.312 2.903 7.663 5.718 9.425C4.15 27.014 1.388 21.947 2.495 16 3.849 8.718 10.504 2.76 17.628 2.28c.284.173.301.2.452.59-.062.917-.115 1.835-.177 2.752 1.407.29 2.734.699 3.806 1.634.035 2.107-1.505 2.987-2.09 2.67.027-.1-2.318-.763-2.805-.881-.593-.1-1.177-.064-1.761.209-.69.336-1.018.835-.69 1.616.283.58.752.962 1.265 1.29 1.478.816 2.956 1.643 4.434 2.46 1.275.735 2.186 1.689 2.77 2.842a6.184 6.184 0 0 1 .275 3.487c-.292.962-.646 1.797-1.186 2.324a5.325 5.325 0 0 1-1.478 1.226c-.753.408-1.505.772-2.283.899-.027.49-.045.971-.071 1.462.062.036.124.018.194 0 1.673-.554 3.142-1.526 4.576-2.588 1.859-1.68 3.593-3.441 4.505-5.72a14.195 14.195 0 0 0 1.327-4.332c.505-4.63-1.142-8.989-6.01-11.277zM18.797 1c8.133 0 13.479 6.71 11.939 15-1.54 8.29-9.39 15-17.524 15C5.07 31-.276 24.29 1.264 16c1.55-8.29 9.39-15 17.533-15z"/></svg>