<svg xmlns="http://www.w3.org/2000/svg" xmlns:xlink="http://www.w3.org/1999/xlink" width="49" height="36" viewBox="0 0 29 21"><defs><linearGradient id="b" x1="50%" x2="50%" y1="77.064%" y2="12.439%"><stop offset="0%" stop-color="#FA1400"/><stop offset="100%" stop-color="#FA906E"/></linearGradient><linearGradient id="c" x1="43.303%" x2="43.303%" y1="77.361%" y2="6.409%"><stop offset="0%" stop-color="#FA5810"/><stop offset="100%" stop-color="#FDC893"/></linearGradient><circle id="d" cx="3.747" cy="17.335" r="2.066"/><path id="a" d="M3.747 19.401a2.066 2.066 0 1 0 0-4.132 2.066 2.066 0 0 0 0 4.132z"/><mask id="e" width="4.132" height="4.132" x="0" y="0" fill="#fff"><use xlink:href="#a"/></mask></defs><g fill="none" fill-rule="evenodd"><path fill="url(#b)" d="M.86 12.314l1.38-2.336c.984.562 1.49 1.066 3.253 1.066 1.143 0 1.841-.445 1.841-1.066 0-.678-.969-.891-2.21-1.143C2.994 8.409.86 8.002.86 4.824.86 2.654 2.701.715 6.015.715c2.074 0 3.876.62 5.252 1.802L9.445 4.901C8.36 4.01 7.521 3.455 6.242 3.455c-.969 0-1.395.387-1.395.93 0 .62.412.942 1.652 1.233 2.132.446 4.454 1.062 4.454 4.104 0 2.597-1.295 4.346-4.764 4.346-2.616 0-4.03-.514-5.329-1.754z" transform="translate(.8 .3)"/><path fill="url(#c)" d="M22.544 13.835l-3.105-4.341h-.548v4.341h-3.333V.909h5.656c2.869 0 4.471 1.9 4.471 4.302 0 2.248-1.94 2.98-3.141 3.407l4.458 5.217h-4.458zm-.75-8.643c0-.872-.737-1.376-1.609-1.376h-1.294v2.771h1.294c.872 0 1.609-.484 1.609-1.395z" transform="translate(.8 .3)"/><path fill="#000" d="M11.995 14.656L8.868 2.114l7.17-1.788.703 2.821-3.936.981.488 1.956 3.804-.949.703 2.82-3.804.95.53 2.124 3.935-.981.704 2.82z"/><path fill="#000" fill-rule="nonzero" d="M.8 16.144h27.727v3.131H.8z"/><g fill-rule="nonzero" transform="translate(.8 .3)"><use stroke="#FFF" xlink:href="#d"/><circle cx="3.747" cy="17.335" r="1.47" stroke="#FC8848" stroke-linejoin="square" stroke-width="1.193"/></g><g fill-rule="nonzero" stroke-dasharray="3.577728033065796,9.689680767059327" transform="rotate(11 2.59 21.64)"><use stroke="#FFF" stroke-width=".5" xlink:href="#a"/><use stroke="#FA1400" stroke-width="2.385" mask="url(#e)" xlink:href="#a"/></g></g></svg>